<svg version="1.1" xmlns="http://www.w3.org/2000/svg" viewBox="0 0 530.1333312988281 311" width="530.1333312988281" height="311">
  <!-- svg-source:excalidraw -->
  
  <defs>
    <style class="style-fonts">
      @font-face {
        font-family: "Virgil";
        src: url("https://excalidraw.com/Virgil.woff2");
      }
      @font-face {
        font-family: "Cascadia";
        src: url("https://excalidraw.com/Cascadia.woff2");
      }
    </style>
  </defs>
  <g transform="translate(394 10) rotate(0 24.941667556762695 12)"><text x="0" y="0" font-family="Virgil, Segoe UI Emoji" font-size="20px" fill="#000000" text-anchor="start" style="white-space: pre;" direction="ltr" dominant-baseline="text-before-edge">IPCC</text></g><g transform="translate(394 80) rotate(0 63.06666564941406 12)"><text x="0" y="0" font-family="Virgil, Segoe UI Emoji" font-size="20px" fill="#000000" text-anchor="start" style="white-space: pre;" direction="ltr" dominant-baseline="text-before-edge">UNFCCC-COP</text></g><g transform="translate(388 277) rotate(0 32.150001525878906 12)"><text x="0" y="0" font-family="Virgil, Segoe UI Emoji" font-size="20px" fill="#000000" text-anchor="start" style="white-space: pre;" direction="ltr" dominant-baseline="text-before-edge">IPBES</text></g><g transform="translate(168 44) rotate(0 38.650001525878906 12)"><text x="0" y="0" font-family="Virgil, Segoe UI Emoji" font-size="20px" fill="#000000" text-anchor="start" style="white-space: pre;" direction="ltr" dominant-baseline="text-before-edge">UNFCCC</text></g><g transform="translate(180 236) rotate(0 21.508333206176758 12)"><text x="0" y="0" font-family="Virgil, Segoe UI Emoji" font-size="20px" fill="#000000" text-anchor="start" style="white-space: pre;" direction="ltr" dominant-baseline="text-before-edge">CBD</text></g><g transform="translate(389 181) rotate(0 45.92499923706055 12)"><text x="0" y="0" font-family="Virgil, Segoe UI Emoji" font-size="20px" fill="#000000" text-anchor="start" style="white-space: pre;" direction="ltr" dominant-baseline="text-before-edge">CBD-COP</text></g><g transform="translate(10 139) rotate(0 26.933332443237305 12)"><text x="0" y="0" font-family="Virgil, Segoe UI Emoji" font-size="20px" fill="#000000" text-anchor="start" style="white-space: pre;" direction="ltr" dominant-baseline="text-before-edge">UNEP</text></g><g stroke-linecap="round"><g transform="translate(57 132) rotate(0 51.39673905299048 -32.281390972808)"><path d="M-1.14 -0.43 C15.99 -11.07, 84.32 -53.55, 101.83 -64.13 M0.47 -1.71 C18.03 -12.22, 86.73 -52.95, 103.93 -63.19" stroke="#000000" stroke-width="1" fill="none"></path></g><g transform="translate(57 132) rotate(0 51.39673905299048 -32.281390972808)"><path d="M16.69 -25.96 C11.35 -17.41, 7.55 -15.56, 0.16 0.88 M17.47 -23.33 C10.25 -14.94, 3.33 -5.56, -0.95 0.32" stroke="#000000" stroke-width="1" fill="none"></path></g><g transform="translate(57 132) rotate(0 51.39673905299048 -32.281390972808)"><path d="M27.51 -8.52 C19.8 -3.95, 13.59 -5.98, 0.16 0.88 M28.29 -5.89 C16.85 -4.38, 5.7 -1.81, -0.95 0.32" stroke="#000000" stroke-width="1" fill="none"></path></g><g transform="translate(57 132) rotate(0 51.39673905299048 -32.281390972808)"><path d="M84.21 -41.92 C87.33 -43.41, 91.88 -51.98, 105.22 -61.87 M84.99 -39.29 C92.43 -48.91, 100.17 -57.8, 104.11 -62.43" stroke="#000000" stroke-width="1" fill="none"></path></g><g transform="translate(57 132) rotate(0 51.39673905299048 -32.281390972808)"><path d="M73.73 -59.56 C79.14 -57.04, 86.02 -61.68, 105.22 -61.87 M74.51 -56.93 C86.04 -59.59, 97.87 -61.59, 104.11 -62.43" stroke="#000000" stroke-width="1" fill="none"></path></g></g><mask></mask><g stroke-linecap="round"><g transform="translate(253 39) rotate(0 66.74644824499262 -9.758082476267589)"><path d="M0.17 0.97 C22.03 -2.23, 110.22 -15.1, 132.33 -18.58 M-1.19 0.43 C20.96 -3.19, 112.49 -17.23, 134.69 -20.48" stroke="#000000" stroke-width="1" fill="none"></path></g><g transform="translate(253 39) rotate(0 66.74644824499262 -9.758082476267589)"><path d="M109.95 -7.26 C119.42 -12.16, 127.66 -18.56, 134.62 -19.77 M109.07 -5.19 C114.61 -8.45, 118.76 -12.48, 135.13 -20.55" stroke="#000000" stroke-width="1" fill="none"></path></g><g transform="translate(253 39) rotate(0 66.74644824499262 -9.758082476267589)"><path d="M106.9 -27.55 C117.68 -24.4, 127.14 -22.75, 134.62 -19.77 M106.02 -25.48 C112.22 -24.43, 117.01 -24.13, 135.13 -20.55" stroke="#000000" stroke-width="1" fill="none"></path></g></g><mask></mask><g stroke-linecap="round"><g transform="translate(254 62.088205816851655) rotate(0 66.1937655113731 13.720424335919944)"><path d="M1.04 0.36 C23.23 4.73, 110.5 22.21, 132.26 26.48 M0.12 -0.5 C22.26 4.04, 109.7 23.36, 131.45 27.94" stroke="#000000" stroke-width="1" fill="none"></path></g><g transform="translate(254 62.088205816851655) rotate(0 66.1937655113731 13.720424335919944)"><path d="M102.33 32.45 C108.13 30.18, 113.96 28.29, 130.29 26.12 M100.83 32.84 C110.77 29.65, 118.93 30.41, 131.38 27.19" stroke="#000000" stroke-width="1" fill="none"></path></g><g transform="translate(254 62.088205816851655) rotate(0 66.1937655113731 13.720424335919944)"><path d="M106.67 12.39 C111.54 14.66, 116.4 17.26, 130.29 26.12 M105.17 12.78 C113.89 15.17, 120.85 21.46, 131.38 27.19" stroke="#000000" stroke-width="1" fill="none"></path></g></g><mask></mask><g stroke-linecap="round"><g transform="translate(229 239) rotate(0 75.34385255910456 -20.623119463697066)"><path d="M-0.03 -0.52 C25.11 -7.46, 124.8 -34.53, 150 -41.31 M-1.51 1.82 C24.07 -5.49, 126.85 -35.58, 152.19 -43.06" stroke="#000000" stroke-width="1" fill="none"></path></g><g transform="translate(229 239) rotate(0 75.34385255910456 -20.623119463697066)"><path d="M127.17 -26.93 C134.72 -29.03, 140.52 -35.08, 151.43 -44.77 M128.02 -25.54 C132.73 -28.31, 137.98 -33.5, 153.05 -43.15" stroke="#000000" stroke-width="1" fill="none"></path></g><g transform="translate(229 239) rotate(0 75.34385255910456 -20.623119463697066)"><path d="M121.38 -46.62 C130.32 -44.18, 137.46 -45.68, 151.43 -44.77 M122.24 -45.23 C128.27 -43.69, 134.79 -44.57, 153.05 -43.15" stroke="#000000" stroke-width="1" fill="none"></path></g></g><mask></mask><g stroke-linecap="round"><g transform="translate(230 258) rotate(0 75.57812351398172 14.341061600744695)"><path d="M-0.67 0.62 C24.8 5.29, 126.74 24.37, 151.82 28.78 M1.18 -0.09 C26.64 4.16, 126.15 22.4, 151.31 27.06" stroke="#000000" stroke-width="1" fill="none"></path></g><g transform="translate(230 258) rotate(0 75.57812351398172 14.341061600744695)"><path d="M122.76 33.43 C129.52 29.15, 133.18 29.15, 151.51 25.51 M121.22 31.06 C128.91 29.5, 138.23 28.21, 152.04 27.93" stroke="#000000" stroke-width="1" fill="none"></path></g><g transform="translate(230 258) rotate(0 75.57812351398172 14.341061600744695)"><path d="M126.48 13.24 C132.54 13.41, 135.38 17.87, 151.51 25.51 M124.93 10.88 C131.68 14.84, 139.99 19.05, 152.04 27.93" stroke="#000000" stroke-width="1" fill="none"></path></g></g><mask></mask><g stroke-linecap="round"><g transform="translate(413 265) rotate(0 0.33837082572279087 -26.608697652230035)"><path d="M-0.79 0.59 C-0.44 -8.24, 1.22 -43.21, 1.46 -51.79 M1 -0.15 C1.29 -8.86, 0.97 -45.05, 0.76 -53.81" stroke="#000000" stroke-width="1" fill="none"></path></g><g transform="translate(413 265) rotate(0 0.33837082572279087 -26.608697652230035)"><path d="M10.99 -28.73 C7.84 -36.13, 6.99 -41.96, 0.04 -55.35 M10.93 -30.31 C7.84 -35.22, 6.6 -39.86, 0.24 -53.02" stroke="#000000" stroke-width="1" fill="none"></path></g><g transform="translate(413 265) rotate(0 0.33837082572279087 -26.608697652230035)"><path d="M-6.8 -28.47 C-5.57 -35.82, -2.03 -41.71, 0.04 -55.35 M-6.86 -30.05 C-5.89 -34.88, -3.08 -39.58, 0.24 -53.02" stroke="#000000" stroke-width="1" fill="none"></path></g></g><mask></mask><g stroke-linecap="round"><g transform="translate(414.05839199731304 69) rotate(0 2.3166150742071068 -15.126235814765096)"><path d="M-0.12 0.09 C0.76 -5.17, 5.04 -25.16, 6.28 -30.34 M-1.65 -0.91 C-1.05 -5.49, 3.68 -24.1, 5.1 -28.98" stroke="#000000" stroke-width="1" fill="none"></path></g><g transform="translate(414.05839199731304 69) rotate(0 2.3166150742071068 -15.126235814765096)"><path d="M6.55 -14.24 C5.34 -18.76, 4.01 -24.1, 4.11 -29.65 M5.68 -13.18 C5.83 -18.7, 5.39 -23.61, 5.07 -28.91" stroke="#000000" stroke-width="1" fill="none"></path></g><g transform="translate(414.05839199731304 69) rotate(0 2.3166150742071068 -15.126235814765096)"><path d="M-3.61 -16.96 C-0.91 -20.43, 1.63 -24.74, 4.11 -29.65 M-4.47 -15.9 C-0.79 -20.57, 2.31 -24.52, 5.07 -28.91" stroke="#000000" stroke-width="1" fill="none"></path></g></g><mask></mask><g stroke-linecap="round"><g transform="translate(412 88) rotate(0 -0.06511790903419978 0.6497593466006322)"><path d="M0.88 0.38 C0.97 0.22, 0.3 0.3, -0.02 0.15 M-0.12 -0.47 C-0.13 0.11, -1.22 1.6, -0.98 1.76" stroke="#000000" stroke-width="1" fill="none"></path></g><g transform="translate(412 88) rotate(0 -0.06511790903419978 0.6497593466006322)"><path d="M-0.98 1.76 C-0.98 1.76, -0.98 1.76, -0.98 1.76 M-0.98 1.76 C-0.98 1.76, -0.98 1.76, -0.98 1.76" stroke="#000000" stroke-width="1" fill="none"></path></g><g transform="translate(412 88) rotate(0 -0.06511790903419978 0.6497593466006322)"><path d="M-0.98 1.76 C-0.98 1.76, -0.98 1.76, -0.98 1.76 M-0.98 1.76 C-0.98 1.76, -0.98 1.76, -0.98 1.76" stroke="#000000" stroke-width="1" fill="none"></path></g></g><mask></mask><g stroke-linecap="round"><g transform="translate(53.046875 168) rotate(0 57.39237973429266 33.849399483650956)"><path d="M0.47 1.12 C19.27 12.29, 94.19 56.27, 113.22 67.04 M-0.74 0.65 C18.4 11.51, 96.37 54.42, 115.52 65.47" stroke="#000000" stroke-width="1" fill="none"></path></g><g transform="translate(53.046875 168) rotate(0 57.39237973429266 33.849399483650956)"><path d="M31.84 5.24 C21.75 5.89, 9.62 3.07, 0.63 2.15 M30.93 6.9 C20.37 5.26, 10.11 2.93, 0.74 1.48" stroke="#000000" stroke-width="1" fill="none"></path></g><g transform="translate(53.046875 168) rotate(0 57.39237973429266 33.849399483650956)"><path d="M21.45 22.94 C14.87 17.57, 6.25 8.78, 0.63 2.15 M20.54 24.6 C13.52 16.93, 6.78 8.61, 0.74 1.48" stroke="#000000" stroke-width="1" fill="none"></path></g><g transform="translate(53.046875 168) rotate(0 57.39237973429266 33.849399483650956)"><path d="M87.78 59.31 C97.66 63.2, 105.49 63.86, 115.68 66.5 M86.88 60.97 C96.31 62.61, 106.06 63.76, 115.79 65.83" stroke="#000000" stroke-width="1" fill="none"></path></g><g transform="translate(53.046875 168) rotate(0 57.39237973429266 33.849399483650956)"><path d="M97.83 41.42 C104.31 51.39, 108.75 58.09, 115.68 66.5 M96.93 43.08 C102.93 50.81, 109.28 58.02, 115.79 65.83" stroke="#000000" stroke-width="1" fill="none"></path></g></g><mask></mask></svg>